<?xml version="1.0" encoding="UTF-8"?>
<svg version="1.1" xmlns="http://www.w3.org/2000/svg" width="94" height="94">
<path d="M0 0 C1.875 0.5625 1.875 0.5625 4 2 C5.90167351 6.70890583 6.19997144 10.08011711 5 15 C6.32 15 7.64 15 9 15 C8.938125 13.80375 8.87625 12.6075 8.8125 11.375 C8.79056063 7.26502405 9.86869566 4.5521739 12 1 C15.55125722 2.77562861 17.35799041 7.1029652 18.60546875 10.7890625 C19.36765738 15.06033741 19.23725565 19.45523179 19.328125 23.78515625 C19.655696 27.18064345 19.655696 27.18064345 22.484375 28.74609375 C23.31453125 29.15988281 24.1446875 29.57367188 25 30 C25.495 31.485 25.495 31.485 26 33 C26.66 33.33 27.32 33.66 28 34 C28 38.29 28 42.58 28 47 C29.485 47.495 29.485 47.495 31 48 C32.0625 49.9375 32.0625 49.9375 33 52 C33.66 52.66 34.32 53.32 35 54 C35.33 54 35.66 54 36 54 C35.67 59.94 35.34 65.88 35 72 C36.98 72.495 36.98 72.495 39 73 C39.66 73.66 40.32 74.32 41 75 C40.625 78.625 40.625 78.625 40 82 C28.46210478 85.84596507 16.12682261 85.18635851 4.10473633 85.18530273 C1.33594195 85.18748155 -1.43244801 85.20567078 -4.20117188 85.22460938 C-14.83101321 85.25892868 -25.55569366 85.22007506 -36 83 C-38.60691842 80.39308158 -38.70416963 78.62392206 -39 75 C-38.34 74.01 -37.68 73.02 -37 72 C-35.68 72 -34.36 72 -33 72 C-33.02320313 71.14277344 -33.04640625 70.28554687 -33.0703125 69.40234375 C-33.20537733 60.84502185 -33.08742624 54.20718717 -28 47 C-27.01 46.505 -27.01 46.505 -26 46 C-25.38006436 43.62225315 -25.38006436 43.62225315 -25 40.8125 C-23.58575085 32.43579352 -23.58575085 32.43579352 -22 29 C-19.9296875 27.84765625 -19.9296875 27.84765625 -18 27 C-17.99383667 26.06933716 -17.99383667 26.06933716 -17.98754883 25.11987305 C-17.9546489 22.30811336 -17.88401352 19.49853145 -17.8125 16.6875 C-17.80669922 15.71103516 -17.80089844 14.73457031 -17.79492188 13.72851562 C-17.71235411 11.05882464 -17.59713679 8.60448382 -17 6 C-14.44921875 3.95703125 -14.44921875 3.95703125 -12 3 C-12 2.34 -12 1.68 -12 1 C-11.01 1.33 -10.02 1.66 -9 2 C-8.3125 4.0625 -8.3125 4.0625 -8 6 C-6.35 6 -4.7 6 -3 6 C-2.01 4.02 -1.02 2.04 0 0 Z M-7 8 C-8.25818438 15.12971149 -7.71148265 21.81949816 -7 29 C-6.67 29 -6.34 29 -6 29 C-5.67 24.71 -5.34 20.42 -5 16 C-4.67 20.29 -4.34 24.58 -4 29 C-3.67 29 -3.34 29 -3 29 C-2.67 24.05 -2.34 19.1 -2 14 C-2.66 13.67 -3.32 13.34 -4 13 C-4.99 13.495 -4.99 13.495 -6 14 C-6 12.02 -6 10.04 -6 8 C-6.33 8 -6.66 8 -7 8 Z M-5 8 C-5 9.65 -5 11.3 -5 13 C-4.67 13 -4.34 13 -4 13 C-4 11.35 -4 9.7 -4 8 C-4.33 8 -4.66 8 -5 8 Z M17 13 C17 18.28 17 23.56 17 29 C17.33 29 17.66 29 18 29 C18 23.72 18 18.44 18 13 C17.67 13 17.34 13 17 13 Z M-16 14 C-15 17 -15 17 -15 17 Z M26 35 C27 38 27 38 27 38 Z M-24 38 C-24 41.3 -24 44.6 -24 48 C-23.67 48 -23.34 48 -23 48 C-23 44.7 -23 41.4 -23 38 C-23.33 38 -23.66 38 -24 38 Z M25 38 C25 41.3 25 44.6 25 48 C25.33 48 25.66 48 26 48 C26 44.7 26 41.4 26 38 C25.67 38 25.34 38 25 38 Z M33 58 C33 63.28 33 68.56 33 74 C33.33 74 33.66 74 34 74 C34 68.72 34 63.44 34 58 C33.67 58 33.34 58 33 58 Z M-32 59 C-32 63.95 -32 68.9 -32 74 C-31.67 74 -31.34 74 -31 74 C-31 69.05 -31 64.1 -31 59 C-31.33 59 -31.66 59 -32 59 Z M-36 81 C-32 82 -32 82 -32 82 Z M34 81 C38 82 38 82 38 82 Z M-31 82 C-31 82.33 -31 82.66 -31 83 C-26.71 83 -22.42 83 -18 83 C-18 82.67 -18 82.34 -18 82 C-22.29 82 -26.58 82 -31 82 Z M20 82 C20 82.33 20 82.66 20 83 C24.29 83 28.58 83 33 83 C33 82.67 33 82.34 33 82 C28.71 82 24.42 82 20 82 Z M-16 83 C-16 83.33 -16 83.66 -16 84 C-4.78 84 6.44 84 18 84 C18 83.67 18 83.34 18 83 C6.78 83 -4.44 83 -16 83 Z " fill="#FC82B1" transform="translate(46,5)"/>
<path d="M0 0 C0.33 0 0.66 0 1 0 C0.67 5.94 0.34 11.88 0 18 C1.98 18.495 1.98 18.495 4 19 C4.99 19.99 4.99 19.99 6 21 C5.625 24.625 5.625 24.625 5 28 C-6.53789522 31.84596507 -18.87317739 31.18635851 -30.89526367 31.18530273 C-33.66405805 31.18748155 -36.43244801 31.20567078 -39.20117188 31.22460938 C-49.83101321 31.25892868 -60.55569366 31.22007506 -71 29 C-73.60691842 26.39308158 -73.70416963 24.62392206 -74 21 C-73.01 19.515 -73.01 19.515 -72 18 C-70.68 18 -69.36 18 -68 18 C-68 13.71 -68 9.42 -68 5 C-66.02 5 -64.04 5 -62 5 C-60.33657163 6.66342837 -60.63951903 8.7825709 -60.4375 11.0625 C-60.35371094 11.98160156 -60.26992188 12.90070313 -60.18359375 13.84765625 C-60.12300781 14.55792969 -60.06242187 15.26820312 -60 16 C-58.02 15.34 -56.04 14.68 -54 14 C-53.67 11.36 -53.34 8.72 -53 6 C-51.35 5.67 -49.7 5.34 -48 5 C-47.67 6.98 -47.34 8.96 -47 11 C-45.04105639 10.88693303 -45.04105639 10.88693303 -43 10 C-41.84668432 7.49195108 -41.84668432 7.49195108 -41 5 C-38.37472811 4.94617894 -35.75055287 4.90641687 -33.125 4.875 C-32.37863281 4.85824219 -31.63226563 4.84148438 -30.86328125 4.82421875 C-28.90805539 4.8066041 -26.95257979 4.89679811 -25 5 C-22.64046906 7.35953094 -22.50858587 8.77895617 -22 12 C-21.34 12 -20.68 12 -20 12 C-19.67 9.69 -19.34 7.38 -19 5 C-17.68 5 -16.36 5 -15 5 C-14.505 9.455 -14.505 9.455 -14 14 C-13.01 14 -12.02 14 -11 14 C-10.855625 12.700625 -10.71125 11.40125 -10.5625 10.0625 C-10.125 6.125 -10.125 6.125 -9 5 C-6.66702567 4.95907063 -4.33294775 4.95758277 -2 5 C-1.34 3.35 -0.68 1.7 0 0 Z M-71 27 C-67 28 -67 28 -67 28 Z M-1 27 C3 28 3 28 3 28 Z M-66 28 C-66 28.33 -66 28.66 -66 29 C-61.71 29 -57.42 29 -53 29 C-53 28.67 -53 28.34 -53 28 C-57.29 28 -61.58 28 -66 28 Z M-15 28 C-15 28.33 -15 28.66 -15 29 C-10.71 29 -6.42 29 -2 29 C-2 28.67 -2 28.34 -2 28 C-6.29 28 -10.58 28 -15 28 Z M-51 29 C-51 29.33 -51 29.66 -51 30 C-39.78 30 -28.56 30 -17 30 C-17 29.67 -17 29.34 -17 29 C-28.22 29 -39.44 29 -51 29 Z " fill="#D97434" transform="translate(81,59)"/>
<path d="M0 0 C1.875 0.5625 1.875 0.5625 4 2 C5.90167351 6.70890583 6.19997144 10.08011711 5 15 C6.32 15 7.64 15 9 15 C8.938125 13.80375 8.87625 12.6075 8.8125 11.375 C8.79056063 7.26502405 9.86869566 4.5521739 12 1 C15.55125722 2.77562861 17.35799041 7.1029652 18.60546875 10.7890625 C19.36765738 15.06033741 19.23725565 19.45523179 19.328125 23.78515625 C19.54984375 24.84605469 19.7715625 25.90695313 20 27 C21.65785292 28.01454496 23.32422104 29.01534644 25 30 C25.3125 33.1875 25.3125 33.1875 25 36 C8.87693525 40.29786515 -7.52102378 38.8611234 -24 38 C-23.73305797 32.57217866 -23.73305797 32.57217866 -23 30 C-22.1646875 29.5565625 -21.329375 29.113125 -20.46875 28.65625 C-17.79453285 27.28385953 -17.79453285 27.28385953 -17.578125 24.86328125 C-17.46251143 22.06791026 -17.45131727 19.29738469 -17.5 16.5 C-17.62734167 9.18275177 -17.62734167 9.18275177 -17 6 C-14.46875 3.96875 -14.46875 3.96875 -12 3 C-12 2.34 -12 1.68 -12 1 C-11.01 1.33 -10.02 1.66 -9 2 C-8.3125 4.0625 -8.3125 4.0625 -8 6 C-6.35 6 -4.7 6 -3 6 C-2.01 4.02 -1.02 2.04 0 0 Z M-7 8 C-8.25818438 15.12971149 -7.71148265 21.81949816 -7 29 C-6.67 29 -6.34 29 -6 29 C-5.67 24.71 -5.34 20.42 -5 16 C-4.67 20.29 -4.34 24.58 -4 29 C-3.67 29 -3.34 29 -3 29 C-2.67 24.05 -2.34 19.1 -2 14 C-2.66 13.67 -3.32 13.34 -4 13 C-4.99 13.495 -4.99 13.495 -6 14 C-6 12.02 -6 10.04 -6 8 C-6.33 8 -6.66 8 -7 8 Z M-5 8 C-5 9.65 -5 11.3 -5 13 C-4.67 13 -4.34 13 -4 13 C-4 11.35 -4 9.7 -4 8 C-4.33 8 -4.66 8 -5 8 Z M17 13 C17 18.28 17 23.56 17 29 C17.33 29 17.66 29 18 29 C18 23.72 18 18.44 18 13 C17.67 13 17.34 13 17 13 Z M-16 14 C-15 17 -15 17 -15 17 Z " fill="#FCA8E1" transform="translate(46,5)"/>
<path d="M0 0 C0.33 0 0.66 0 1 0 C0.67 5.94 0.34 11.88 0 18 C1.98 18.495 1.98 18.495 4 19 C4.99 19.99 4.99 19.99 6 21 C5.625 24.625 5.625 24.625 5 28 C-6.53789522 31.84596507 -18.87317739 31.18635851 -30.89526367 31.18530273 C-33.66405805 31.18748155 -36.43244801 31.20567078 -39.20117188 31.22460938 C-49.83101321 31.25892868 -60.55569366 31.22007506 -71 29 C-73.60691842 26.39308158 -73.70416963 24.62392206 -74 21 C-73.01 19.515 -73.01 19.515 -72 18 C-70.68 18 -69.36 18 -68 18 C-68 13.71 -68 9.42 -68 5 C-67.67 5 -67.34 5 -67 5 C-67 9.95 -67 14.9 -67 20 C-66.34 20 -65.68 20 -65 20 C-65 20.66 -65 21.32 -65 22 C-44.54 22 -24.08 22 -3 22 C-3 21.34 -3 20.68 -3 20 C-2.34 20 -1.68 20 -1 20 C-1.01160156 18.89140625 -1.02320312 17.7828125 -1.03515625 16.640625 C-1.04453792 15.17708502 -1.05363771 13.71354322 -1.0625 12.25 C-1.07087891 11.52039063 -1.07925781 10.79078125 -1.08789062 10.0390625 C-1.10391684 6.51329442 -0.95292713 3.38965084 0 0 Z M-71 27 C-67 28 -67 28 -67 28 Z M-1 27 C3 28 3 28 3 28 Z M-66 28 C-66 28.33 -66 28.66 -66 29 C-61.71 29 -57.42 29 -53 29 C-53 28.67 -53 28.34 -53 28 C-57.29 28 -61.58 28 -66 28 Z M-15 28 C-15 28.33 -15 28.66 -15 29 C-10.71 29 -6.42 29 -2 29 C-2 28.67 -2 28.34 -2 28 C-6.29 28 -10.58 28 -15 28 Z M-51 29 C-51 29.33 -51 29.66 -51 30 C-39.78 30 -28.56 30 -17 30 C-17 29.67 -17 29.34 -17 29 C-28.22 29 -39.44 29 -51 29 Z " fill="#A69597" transform="translate(81,59)"/>
<path d="M0 0 C0.66 0.33 1.32 0.66 2 1 C2.08107583 2.93681161 2.13922475 4.8745934 2.1875 6.8125 C2.23970703 8.43091797 2.23970703 8.43091797 2.29296875 10.08203125 C2 13 2 13 0.77836609 14.66108704 C-1.53432718 16.40228926 -2.86896228 16.36323652 -5.74682617 16.34057617 C-6.70759567 16.34034958 -7.66836517 16.34012299 -8.6582489 16.33988953 C-9.69270645 16.32440567 -10.727164 16.30892181 -11.79296875 16.29296875 C-12.85413406 16.28872391 -13.91529938 16.28447906 -15.00862122 16.28010559 C-18.40183765 16.26329706 -21.79446272 16.22564019 -25.1875 16.1875 C-27.48631956 16.172456 -29.78514841 16.15876711 -32.08398438 16.14648438 C-37.72288451 16.1133863 -43.36134196 16.06158843 -49 16 C-49 12.37 -49 8.74 -49 5 C-47.56333984 5.01571045 -47.56333984 5.01571045 -46.09765625 5.03173828 C-42.51192019 5.06819857 -38.92620022 5.09099426 -35.34033203 5.10986328 C-33.79440547 5.11986197 -32.24849754 5.13346538 -30.70263672 5.15087891 C-28.46837745 5.17539951 -26.23437025 5.18654451 -24 5.1953125 C-23.31945557 5.20563507 -22.63891113 5.21595764 -21.93774414 5.22659302 C-16.94310644 5.22773606 -12.78391769 4.27010523 -8 3 C-5.63417132 2.84680949 -3.37358763 2.90110052 -1 3 C-0.67 2.01 -0.34 1.02 0 0 Z M0 2 C1 5 1 5 1 5 Z " fill="#FCA54C" transform="translate(72,38)"/>
<path d="M0 0 C0.33 0 0.66 0 1 0 C1.33 3.3 1.66 6.6 2 10 C18.5 10 35 10 52 10 C52.33 9.34 52.66 8.68 53 8 C55.74084921 10.36709704 56.7367158 12.64405806 58 16 C57.34402832 15.98952637 56.68805664 15.97905273 56.01220703 15.96826172 C53.04984342 15.92677497 50.08754084 15.90069738 47.125 15.875 C45.57619141 15.84986328 45.57619141 15.84986328 43.99609375 15.82421875 C43.00996094 15.81777344 42.02382813 15.81132813 41.0078125 15.8046875 C40.09660645 15.79421387 39.18540039 15.78374023 38.24658203 15.77294922 C35.79709564 15.78129007 35.79709564 15.78129007 34 18 C25.49127937 19.60541899 16.47541853 19.74417912 8 18 C5.56494763 17.78301513 3.12698616 17.59709255 0.6875 17.4375 C-0.56675781 17.35371094 -1.82101563 17.26992188 -3.11328125 17.18359375 C-4.54220703 17.09271484 -4.54220703 17.09271484 -6 17 C-5.30886587 14.08255768 -4.52520115 11.60181373 -3 9 C-2.34 8.67 -1.68 8.34 -1 8 C-0.53476937 6.10466658 -0.53476937 6.10466658 -0.375 3.9375 C-0.25125 2.638125 -0.1275 1.33875 0 0 Z " fill="#FD9DBC" transform="translate(21,43)"/>
<path d="M0 0 C0.33 0 0.66 0 1 0 C1 4.95 1 9.9 1 15 C1.66 15 2.32 15 3 15 C3 15.66 3 16.32 3 17 C22.14 17.33 41.28 17.66 61 18 C61 18.33 61 18.66 61 19 C58.69 19.33 56.38 19.66 54 20 C54 20.66 54 21.32 54 22 C50.89718934 23.55140533 47.61545559 23.14197632 44.2109375 23.1328125 C43.045056 23.13424759 43.045056 23.13424759 41.85562134 23.13571167 C40.20631835 23.13639306 38.5570127 23.13454166 36.90771484 23.13037109 C34.40586147 23.12506545 31.9041912 23.13029489 29.40234375 23.13671875 C27.79687461 23.13605711 26.19140558 23.13477419 24.5859375 23.1328125 C23.84604584 23.13483673 23.10615417 23.13686096 22.34384155 23.13894653 C9.08036542 23.08036542 9.08036542 23.08036542 7 21 C4.98405418 20.76572222 2.961526 20.58663876 0.9375 20.4375 C-0.16722656 20.35371094 -1.27195312 20.26992187 -2.41015625 20.18359375 C-3.26480469 20.12300781 -4.11945312 20.06242187 -5 20 C-5.625 18.1875 -5.625 18.1875 -6 16 C-5.34 15.01 -4.68 14.02 -4 13 C-2.68 13 -1.36 13 0 13 C0 8.71 0 4.42 0 0 Z " fill="#D5D6E1" transform="translate(13,64)"/>
<path d="M0 0 C0.66 0.33 1.32 0.66 2 1 C2.08107583 2.93681161 2.13922475 4.8745934 2.1875 6.8125 C2.23970703 8.43091797 2.23970703 8.43091797 2.29296875 10.08203125 C2 13 2 13 0.75976562 14.6640625 C-1.47156331 16.35799035 -2.67130897 16.34889982 -5.44921875 16.29296875 C-6.29677734 16.28330078 -7.14433594 16.27363281 -8.01757812 16.26367188 C-9.33918945 16.2259668 -9.33918945 16.2259668 -10.6875 16.1875 C-11.58017578 16.17396484 -12.47285156 16.16042969 -13.39257812 16.14648438 C-15.59566166 16.11114079 -17.79752582 16.06180493 -20 16 C-19.34 15.34 -18.68 14.68 -18 14 C-18.66 11.69 -19.32 9.38 -20 7 C-29.57 6.67 -39.14 6.34 -49 6 C-49 5.67 -49 5.34 -49 5 C-47.56333984 5.01571045 -47.56333984 5.01571045 -46.09765625 5.03173828 C-42.51192019 5.06819857 -38.92620022 5.09099426 -35.34033203 5.10986328 C-33.79440547 5.11986197 -32.24849754 5.13346538 -30.70263672 5.15087891 C-28.46837745 5.17539951 -26.23437025 5.18654451 -24 5.1953125 C-23.31945557 5.20563507 -22.63891113 5.21595764 -21.93774414 5.22659302 C-16.94310644 5.22773606 -12.78391769 4.27010523 -8 3 C-5.63417132 2.84680949 -3.37358763 2.90110052 -1 3 C-0.67 2.01 -0.34 1.02 0 0 Z M0 2 C1 5 1 5 1 5 Z " fill="#E46A38" transform="translate(72,38)"/>
<path d="M0 0 C0.99 0.33 1.98 0.66 3 1 C3.6875 3.0625 3.6875 3.0625 4 5 C5.32 5 6.64 5 8 5 C8 7.64 8 10.28 8 13 C7.01 13 6.02 13 5 13 C5.01160156 14.07121094 5.02320313 15.14242188 5.03515625 16.24609375 C5.04453299 17.64322743 5.05363331 19.04036299 5.0625 20.4375 C5.07087891 21.14455078 5.07925781 21.85160156 5.08789062 22.58007812 C5.09653588 24.38693559 5.05220011 26.19387603 5 28 C4 29 4 29 0.5 29.125 C-3 29 -3 29 -4 28 C-4.04748928 25.64631237 -4.03710541 23.29137423 -4 20.9375 C-3.9435772 15.53052859 -4.12796861 10.34119229 -5 5 C-4.175 4.54625 -3.35 4.0925 -2.5 3.625 C-1.2625 2.820625 -1.2625 2.820625 0 2 C0 1.34 0 0.68 0 0 Z " fill="#F971FD" transform="translate(34,6)"/>
<path d="M0 0 C1.875 0.5625 1.875 0.5625 4 2 C5.97515334 6.89085589 5.85087075 9.93124142 5 15 C4.93343688 17.63589958 4.90432589 20.24148596 4.9375 22.875 C4.94201172 23.56335938 4.94652344 24.25171875 4.95117188 24.9609375 C4.96283664 26.64066335 4.98076729 28.32034375 5 30 C2.36 30 -0.28 30 -3 30 C-2.98839844 28.85660156 -2.97679687 27.71320312 -2.96484375 26.53515625 C-2.95546712 25.04427246 -2.94636679 23.55338691 -2.9375 22.0625 C-2.92912109 21.30775391 -2.92074219 20.55300781 -2.91210938 19.77539062 C-2.90347559 17.85005687 -2.94775667 15.92464419 -3 14 C-3.33 13.67 -3.66 13.34 -4 13 C-3.60918594 8.01712068 -2.44012039 4.34977982 0 0 Z " fill="#F07CED" transform="translate(46,5)"/>
<path d="M0 0 C0.99708984 0.04447266 1.99417969 0.08894531 3.02148438 0.13476562 C10.40044585 0.53779724 10.40044585 0.53779724 13.8125 2.8125 C13.8125 3.4725 13.8125 4.1325 13.8125 4.8125 C-2.31056475 9.11036515 -18.70852378 7.6736234 -35.1875 6.8125 C-35.1875 6.1525 -35.1875 5.4925 -35.1875 4.8125 C-33.95773438 4.70292969 -32.72796875 4.59335937 -31.4609375 4.48046875 C-29.82806405 4.32093514 -28.19525474 4.16074407 -26.5625 4 C-25.35013672 3.89461914 -25.35013672 3.89461914 -24.11328125 3.78710938 C-20.33906448 3.40355076 -17.6658407 3.07529611 -14.30078125 1.2265625 C-9.55635753 -0.92837023 -5.12003941 -0.33151334 0 0 Z " fill="#FD9DC0" transform="translate(57.1875,36.1875)"/>
<path d="M0 0 C3.34793697 1.67396848 4.76257416 4.6090637 6 8 C6.33134901 11.68661174 6.06706116 15.25606761 5.75 18.9375 C5.68425781 19.90751953 5.61851563 20.87753906 5.55078125 21.87695312 C5.38688416 24.25346099 5.20286401 26.62655493 5 29 C2.36 29 -0.28 29 -3 29 C-3.08756305 25.29181703 -3.14058015 21.58390237 -3.1875 17.875 C-3.21263672 16.82828125 -3.23777344 15.7815625 -3.26367188 14.703125 C-3.31833491 8.94528536 -3.20676341 4.86485368 0 0 Z " fill="#DF3AF5" transform="translate(58,6)"/>
<path d="M0 0 C0 0.99 0 1.98 0 3 C-3.10281066 4.55140533 -6.38454441 4.14197632 -9.7890625 4.1328125 C-10.954944 4.13424759 -10.954944 4.13424759 -12.14437866 4.13571167 C-13.79368165 4.13639306 -15.4429873 4.13454166 -17.09228516 4.13037109 C-19.59413853 4.12506545 -22.0958088 4.13029489 -24.59765625 4.13671875 C-26.20312539 4.13605711 -27.80859442 4.13477419 -29.4140625 4.1328125 C-30.15395416 4.13483673 -30.89384583 4.13686096 -31.65615845 4.13894653 C-36.51651188 4.11747969 -41.20569518 3.83855518 -46 3 C-46.33 2.34 -46.66 1.68 -47 1 C-41.43158779 0.85644683 -35.8631472 0.71406854 -30.29467773 0.57275391 C-28.40241698 0.52457022 -26.51016422 0.47607186 -24.61791992 0.42724609 C-21.88983187 0.35690865 -19.16171661 0.28772252 -16.43359375 0.21875 C-15.17536049 0.18593933 -15.17536049 0.18593933 -13.89170837 0.15246582 C-9.25928277 0.03657867 -4.63387415 -0.02176805 0 0 Z " fill="#CECFD7" transform="translate(67,83)"/>
<path d="M0 0 C0.33 0 0.66 0 1 0 C1.06058594 0.71027344 1.12117188 1.42054687 1.18359375 2.15234375 C1.26738281 3.07144531 1.35117187 3.99054687 1.4375 4.9375 C1.51871094 5.85402344 1.59992187 6.77054688 1.68359375 7.71484375 C1.76044976 9.96159732 1.76044976 9.96159732 3 11 C4.55948542 11.15686249 6.12542668 11.25076639 7.69140625 11.31640625 C8.63564453 11.35830078 9.57988281 11.40019531 10.55273438 11.44335938 C12.04256836 11.50233398 12.04256836 11.50233398 13.5625 11.5625 C15.05813477 11.62727539 15.05813477 11.62727539 16.58398438 11.69335938 C19.0558415 11.79980298 21.5278031 11.90181928 24 12 C22 15 22 15 19.05859375 15.68359375 C14.07485406 16.19915303 9.06635506 16.10696351 4.0625 16.0625 C3.09248047 16.05798828 2.12246094 16.05347656 1.12304688 16.04882812 C-1.2513676 16.0371315 -3.62565021 16.02074086 -6 16 C-4.375 10.25 -4.375 10.25 -1 8 C-0.42251197 6.03638136 -0.42251197 6.03638136 -0.3125 3.875 C-0.209375 2.59625 -0.10625 1.3175 0 0 Z " fill="#FEDFED" transform="translate(21,43)"/>
<path d="M0 0 C-0.33 1.65 -0.66 3.3 -1 5 C-3.31 5.33 -5.62 5.66 -8 6 C-8.33 8.64 -8.66 11.28 -9 14 C-10.9375 14.5625 -10.9375 14.5625 -13 15 C-14 14 -14 14 -14.09765625 11.93359375 C-14.08025391 10.69802734 -14.08025391 10.69802734 -14.0625 9.4375 C-14.05347656 8.61121094 -14.04445313 7.78492187 -14.03515625 6.93359375 C-14.02355469 6.29550781 -14.01195313 5.65742187 -14 5 C-15.32 5 -16.64 5 -18 5 C-18 7.31 -18 9.62 -18 12 C-19.32 12 -20.64 12 -22 12 C-21.34 11.01 -20.68 10.02 -20 9 C-19.60986284 7.0103005 -19.26797351 5.00980131 -19 3 C-12.73104223 0.9992688 -6.59124644 0 0 0 Z " fill="#F05681" transform="translate(80,59)"/>
<path d="M0 0 C2.45933991 0.11369211 4.9167909 0.24042651 7.375 0.375 C8.07367188 0.4059375 8.77234375 0.436875 9.4921875 0.46875 C14.7734375 0.7734375 14.7734375 0.7734375 17 3 C16.01 3.33 15.02 3.66 14 4 C13.87625 5.27875 13.7525 6.5575 13.625 7.875 C13.25 11.75 13.25 11.75 11 14 C9.35 14 7.7 14 6 14 C5.34 10.7 4.68 7.4 4 4 C2.68 3.67 1.36 3.34 0 3 C0 2.01 0 1.02 0 0 Z " fill="#FD6F9D" transform="translate(15,61)"/>
<path d="M0 0 C0.99 0.33 1.98 0.66 3 1 C3.6875 3.0625 3.6875 3.0625 4 5 C5.32 5 6.64 5 8 5 C8 7.64 8 10.28 8 13 C4.32589215 14.17571451 0.83070817 14.07366746 -3 14 C-5.04 8.72 -5.04 8.72 -4.875 5.75 C-3.71035341 3.42070681 -2.37978442 2.92120687 0 2 C0 1.34 0 0.68 0 0 Z " fill="#FCD34F" transform="translate(34,6)"/>
<path d="M0 0 C1.875 0.5625 1.875 0.5625 4 2 C5.72461906 6.35261001 6.36744847 9.48742006 5 14 C-1.15234375 14.09765625 -1.15234375 14.09765625 -3 14 C-3.33 13.67 -3.66 13.34 -4 13 C-3.60918594 8.01712068 -2.44012039 4.34977982 0 0 Z " fill="#F6B622" transform="translate(46,5)"/>
<path d="M0 0 C3.25577298 1.62788649 4.71224915 4.71723618 6 8 C5.75 11.4375 5.75 11.4375 5 14 C2.66705225 14.04241723 0.33297433 14.04092937 -2 14 C-3 13 -3 13 -3.25 9.8125 C-2.98518881 5.77412943 -2.02444992 3.45843529 0 0 Z " fill="#FDD93B" transform="translate(58,6)"/>
<path d="M0 0 C1.15242188 0.01804688 2.30484375 0.03609375 3.4921875 0.0546875 C4.36101562 0.07789063 5.22984375 0.10109375 6.125 0.125 C6.125 0.785 6.125 1.445 6.125 2.125 C-9.99806475 6.42286515 -26.39602378 4.9861234 -42.875 4.125 C-42.875 3.795 -42.875 3.465 -42.875 3.125 C-41.55894775 3.095271 -41.55894775 3.095271 -40.21630859 3.06494141 C-36.93967423 2.986524 -33.66347139 2.89982117 -30.38720703 2.80761719 C-28.97322937 2.76949762 -27.55916035 2.73461596 -26.14501953 2.703125 C-24.1041616 2.65710142 -22.0639234 2.59917333 -20.0234375 2.5390625 C-18.79802246 2.5076416 -17.57260742 2.4762207 -16.31005859 2.44384766 C-10.56223274 1.91032523 -5.89889267 -0.12038556 0 0 Z " fill="#FC80A7" transform="translate(64.875,38.875)"/>
<path d="M0 0 C11.55 0 23.1 0 35 0 C35 2.31 35 4.62 35 7 C33.35 7.33 31.7 7.66 30 8 C29.67 6.02 29.34 4.04 29 2 C19.43 1.67 9.86 1.34 0 1 C0 0.67 0 0.34 0 0 Z " fill="#F25F6B" transform="translate(23,43)"/>
<path d="M0 0 C1.9375 0.6875 1.9375 0.6875 4 2 C4.33 3.65 4.66 5.3 5 7 C-2.92 6.67 -10.84 6.34 -19 6 C-19 5.34 -19 4.68 -19 4 C-17.87980469 3.93941406 -16.75960937 3.87882812 -15.60546875 3.81640625 C-14.13280016 3.73198576 -12.66014456 3.64733851 -11.1875 3.5625 C-10.44951172 3.52318359 -9.71152344 3.48386719 -8.95117188 3.44335938 C-5.76928658 3.25618965 -3.03837622 3.01279207 0 2 C0 1.34 0 0.68 0 0 Z " fill="#FEA5D0" transform="translate(73,51)"/>
<path d="M0 0 C0.33 0 0.66 0 1 0 C1 4.62 1 9.24 1 14 C3.475 14.99 3.475 14.99 6 16 C5.3203125 17.953125 5.3203125 17.953125 4 20 C1.6171875 20.609375 1.6171875 20.609375 -1.125 20.75 C-2.03507812 20.80671875 -2.94515625 20.8634375 -3.8828125 20.921875 C-4.58148437 20.94765625 -5.28015625 20.9734375 -6 21 C-6.3125 18.6875 -6.3125 18.6875 -6 16 C-4.78763672 15.30970703 -4.78763672 15.30970703 -3.55078125 14.60546875 C-2.70902344 14.07566406 -1.86726563 13.54585937 -1 13 C-0.17869322 9.82138027 -0.17869322 9.82138027 -0.1875 6.3125 C-0.13980469 5.13300781 -0.09210937 3.95351563 -0.04296875 2.73828125 C-0.02878906 1.83464844 -0.01460937 0.93101563 0 0 Z " fill="#FAB9F3" transform="translate(29,19)"/>
<path d="M0 0 C0.66 0.33 1.32 0.66 2 1 C2.05389087 2.95803507 2.09274217 4.91648909 2.125 6.875 C2.14820312 7.96554688 2.17140625 9.05609375 2.1953125 10.1796875 C2 13 2 13 0 15 C0 11.7 0 8.4 0 5 C-1.65 5.33 -3.3 5.66 -5 6 C-5.33 7.65 -5.66 9.3 -6 11 C-6.99 11 -7.98 11 -9 11 C-9.33 8.69 -9.66 6.38 -10 4 C-7.04335481 2.5216774 -4.25770263 2.93967217 -1 3 C-0.67 2.01 -0.34 1.02 0 0 Z M0 2 C1 5 1 5 1 5 Z " fill="#C84F68" transform="translate(72,38)"/>
<path d="M0 0 C2.31 0 4.62 0 7 0 C7.02691685 2.45840605 7.04679802 4.91651882 7.0625 7.375 C7.07087891 8.07367188 7.07925781 8.77234375 7.08789062 9.4921875 C7.11328125 14.7734375 7.11328125 14.7734375 6 17 C0.72 17 -4.56 17 -10 17 C-10 16.67 -10 16.34 -10 16 C-9.15695313 15.93941406 -8.31390625 15.87882812 -7.4453125 15.81640625 C-6.34960938 15.73261719 -5.25390625 15.64882812 -4.125 15.5625 C-3.03445312 15.48128906 -1.94390625 15.40007812 -0.8203125 15.31640625 C1.94728971 15.16998297 1.94728971 15.16998297 4 14 C4.46954261 10.95418731 4.46954261 10.95418731 4.625 7.4375 C4.69976562 6.23996094 4.77453125 5.04242188 4.8515625 3.80859375 C4.90054688 2.88175781 4.94953125 1.95492187 5 1 C3.02 1.66 1.04 2.32 -1 3 C-0.67 2.01 -0.34 1.02 0 0 Z " fill="#BB5C30" transform="translate(72,64)"/>
<path d="M0 0 C-0.33 1.65 -0.66 3.3 -1 5 C-3.31 5.33 -5.62 5.66 -8 6 C-8.33 8.64 -8.66 11.28 -9 14 C-10.32 14.33 -11.64 14.66 -13 15 C-12.68950274 13.56206608 -12.3765224 12.1246682 -12.0625 10.6875 C-11.88847656 9.88699219 -11.71445313 9.08648437 -11.53515625 8.26171875 C-11 6 -11 6 -10 3 C-6.5065403 1.25327015 -3.93154432 0 0 0 Z " fill="#E84F76" transform="translate(80,59)"/>
<path d="M0 0 C0.33 0 0.66 0 1 0 C1.06058594 0.98742187 1.12117188 1.97484375 1.18359375 2.9921875 C1.26738281 4.27351563 1.35117187 5.55484375 1.4375 6.875 C1.51871094 8.15117187 1.59992187 9.42734375 1.68359375 10.7421875 C1.79206027 13.88300152 1.79206027 13.88300152 3 16 C2.195625 16.12375 1.39125 16.2475 0.5625 16.375 C-0.283125 16.58125 -1.12875 16.7875 -2 17 C-2.33 17.66 -2.66 18.32 -3 19 C-4.65 19 -6.3 19 -8 19 C-7.3125 17.0625 -7.3125 17.0625 -6 15 C-3.41796875 14.37109375 -3.41796875 14.37109375 -1 14 C-1.01160156 13.07316406 -1.02320313 12.14632812 -1.03515625 11.19140625 C-1.04417969 9.99386719 -1.05320312 8.79632813 -1.0625 7.5625 C-1.07410156 6.36753906 -1.08570313 5.17257813 -1.09765625 3.94140625 C-1 1 -1 1 0 0 Z " fill="#FE9CF3" transform="translate(41,20)"/>
<path d="M0 0 C2.64 0 5.28 0 8 0 C7.34 2.31 6.68 4.62 6 7 C4.68 7.33 3.36 7.66 2 8 C1.67 9.65 1.34 11.3 1 13 C0.67 13 0.34 13 0 13 C0 8.71 0 4.42 0 0 Z " fill="#EC70F7" transform="translate(55,20)"/>
<path d="M0 0 C1.97909398 -0.02686553 3.95828971 -0.04633375 5.9375 -0.0625 C7.03964844 -0.07410156 8.14179688 -0.08570312 9.27734375 -0.09765625 C12 0 12 0 13 1 C15.52195967 1.39943176 18.02963656 1.75079848 20.5625 2.0625 C21.27341797 2.15337891 21.98433594 2.24425781 22.71679688 2.33789062 C24.47738403 2.56239503 26.23863478 2.78168397 28 3 C28 3.33 28 3.66 28 4 C23.70838953 4.05783842 19.41687855 4.0935412 15.125 4.125 C13.90167969 4.14175781 12.67835937 4.15851563 11.41796875 4.17578125 C9.66806641 4.18544922 9.66806641 4.18544922 7.8828125 4.1953125 C6.80402832 4.20578613 5.72524414 4.21625977 4.61376953 4.22705078 C2 4 2 4 0 2 C0 1.34 0 0.68 0 0 Z M2 2 C6 3 6 3 6 3 Z " fill="#7F7A80" transform="translate(8,84)"/>
<path d="M0 0 C2.475 0.495 2.475 0.495 5 1 C5 3.31 5 5.62 5 8 C4.34 7.67 3.68 7.34 3 7 C2.67 9.97 2.34 12.94 2 16 C2.99 16.33 3.98 16.66 5 17 C3.68 17 2.36 17 1 17 C-0.53266582 13.93466836 -0.10276471 10.73245728 -0.0625 7.375 C-0.05798828 6.66859375 -0.05347656 5.9621875 -0.04882812 5.234375 C-0.03703875 3.48954725 -0.01910324 1.744763 0 0 Z " fill="#E7954F" transform="translate(15,64)"/>
<path d="M0 0 C0.33 0.66 0.66 1.32 1 2 C-4.26723095 5.24727345 -8.39949939 5.37334093 -14.375 5.1875 C-15.20644531 5.17396484 -16.03789063 5.16042969 -16.89453125 5.14648438 C-18.92997066 5.11139059 -20.96507291 5.05759228 -23 5 C-23 4.67 -23 4.34 -23 4 C-22.27554687 3.96261719 -21.55109375 3.92523438 -20.8046875 3.88671875 C-13.39833244 3.38308661 -7.2132615 -0.51523296 0 0 Z " fill="#FEB0CC" transform="translate(52,36)"/>
<path d="M0 0 C1.11503906 0.01289062 2.23007812 0.02578125 3.37890625 0.0390625 C5.11720703 0.08933594 5.11720703 0.08933594 6.890625 0.140625 C8.65212891 0.16769531 8.65212891 0.16769531 10.44921875 0.1953125 C13.3471784 0.2424338 16.24348918 0.30821195 19.140625 0.390625 C19.140625 1.050625 19.140625 1.710625 19.140625 2.390625 C18.48465332 2.38015137 17.82868164 2.36967773 17.15283203 2.35888672 C14.19046842 2.31739997 11.22816584 2.29132238 8.265625 2.265625 C6.71681641 2.24048828 6.71681641 2.24048828 5.13671875 2.21484375 C4.15058594 2.20839844 3.16445313 2.20195313 2.1484375 2.1953125 C1.23723145 2.18483887 0.32602539 2.17436523 -0.61279297 2.16357422 C-3.06227936 2.17191507 -3.06227936 2.17191507 -4.859375 4.390625 C-7.484375 4.515625 -7.484375 4.515625 -9.859375 4.390625 C-6.71722309 0.59111914 -4.89172445 -0.09983111 0 0 Z " fill="#FC92C1" transform="translate(59.859375,56.609375)"/>
<path d="M0 0 C0.33 0 0.66 0 1 0 C1 4.95 1 9.9 1 15 C1.66 15 2.32 15 3 15 C3 15.66 3 16.32 3 17 C3.66 17.33 4.32 17.66 5 18 C1.37 18 -2.26 18 -6 18 C-5.34 16.35 -4.68 14.7 -4 13 C-2.68 13 -1.36 13 0 13 C0 8.71 0 4.42 0 0 Z " fill="#F0D5B8" transform="translate(13,64)"/>
<path d="M0 0 C4.29 0 8.58 0 13 0 C12.01 1.485 12.01 1.485 11 3 C7.7421875 3.51171875 7.7421875 3.51171875 3.875 3.6875 C1.95300781 3.78611328 1.95300781 3.78611328 -0.0078125 3.88671875 C-0.99523437 3.92410156 -1.98265625 3.96148437 -3 4 C-2.505 3.525625 -2.01 3.05125 -1.5 2.5625 C0.11542197 1.24076302 0.11542197 1.24076302 0 0 Z " fill="#FEB9D9" transform="translate(32,55)"/>
<path d="M0 0 C0.33 0 0.66 0 1 0 C1.01417969 0.97582031 1.02835937 1.95164062 1.04296875 2.95703125 C1.09066406 4.22933594 1.13835937 5.50164063 1.1875 6.8125 C1.22230469 8.07707031 1.25710937 9.34164063 1.29296875 10.64453125 C1.62967333 14.18298996 1.62967333 14.18298996 4.55078125 15.69921875 C5.35902344 16.12847656 6.16726562 16.55773437 7 17 C7 18.32 7 19.64 7 21 C4.03 20.01 1.06 19.02 -2 18 C-1.67 17.34 -1.34 16.68 -1 16 C-0.7677354 13.28737884 -0.58063765 10.59226874 -0.4375 7.875 C-0.39431641 7.12089844 -0.35113281 6.36679687 -0.30664062 5.58984375 C-0.2005168 3.72678112 -0.09974999 1.86341476 0 0 Z " fill="#DBB2DC" transform="translate(64,18)"/>
<path d="M0 0 C1.9375 0.75 1.9375 0.75 4 2 C4.8125 4 4.8125 4 5 6 C4.67 6.66 4.34 7.32 4 8 C3.01 7.67 2.02 7.34 1 7 C0.34 7.66 -0.32 8.32 -1 9 C-1.99 8.67 -2.98 8.34 -4 8 C-2.66666667 5.33333333 -1.33333333 2.66666667 0 0 Z " fill="#FCED6F" transform="translate(46,5)"/>
<path d="M0 0 C0.33 0 0.66 0 1 0 C1.33 4.29 1.66 8.58 2 13 C-0.64430277 14.05772111 -3.29814878 15.09938293 -6 16 C-4.375 10.25 -4.375 10.25 -1 8 C-0.42251197 6.03638136 -0.42251197 6.03638136 -0.3125 3.875 C-0.209375 2.59625 -0.10625 1.3175 0 0 Z " fill="#F6D5BE" transform="translate(21,43)"/>
<path d="M0 0 C0.33 0 0.66 0 1 0 C1 4.29 1 8.58 1 13 C-0.98 13 -2.96 13 -5 13 C-4.34 12.67 -3.68 12.34 -3 12 C-2.34625258 9.45293768 -2.34625258 9.45293768 -1.9375 6.5 C-1.09465649 1.09465649 -1.09465649 1.09465649 0 0 Z " fill="#D835EB" transform="translate(38,21)"/>
<path d="M0 0 C0 0.99 0 1.98 0 3 C-2.95664519 4.4783226 -5.74229737 4.06032783 -9 4 C-9 3.67 -9 3.34 -9 3 C-11.97 2.67 -14.94 2.34 -18 2 C-18 1.67 -18 1.34 -18 1 C-11.97968656 0.39034801 -6.05329744 -0.13451772 0 0 Z " fill="#C6C8D4" transform="translate(67,83)"/>
<path d="M0 0 C0.33 0 0.66 0 1 0 C1 3.96 1 7.92 1 12 C-0.98 12 -2.96 12 -5 12 C-5 11.01 -5 10.02 -5 9 C-4.01 9 -3.02 9 -2 9 C-1.34 6.03 -0.68 3.06 0 0 Z " fill="#E045F2" transform="translate(50,22)"/>
<path d="M0 0 C2.31 0 4.62 0 7 0 C7 0.66 7 1.32 7 2 C5.35 2 3.7 2 2 2 C0.6728739 5.9813783 0.93084087 9.85045227 1 14 C0.34 14 -0.32 14 -1 14 C-1.02694851 12.04174127 -1.04637218 10.08337774 -1.0625 8.125 C-1.07410156 7.03445312 -1.08570312 5.94390625 -1.09765625 4.8203125 C-1 2 -1 2 0 0 Z " fill="#D497EA" transform="translate(31,20)"/>
<path d="M0 0 C0.33 0 0.66 0 1 0 C1 4.62 1 9.24 1 14 C-1.64 14 -4.28 14 -7 14 C-7 13.34 -7 12.68 -7 12 C-6.34 12 -5.68 12 -5 12 C-4.67 11.01 -4.34 10.02 -4 9 C-3.67 9.66 -3.34 10.32 -3 11 C-2.01 11.33 -1.02 11.66 0 12 C0 8.04 0 4.08 0 0 Z " fill="#CB40E3" transform="translate(62,21)"/>
<path d="M0 0 C0 0.33 0 0.66 0 1 C-4.17737474 2.59138085 -7.53160785 3.21278058 -12 3 C-12 5.64 -12 8.28 -12 11 C-13.32 11 -14.64 11 -16 11 C-15.34 10.01 -14.68 9.02 -14 8 C-13.60986284 6.0103005 -13.26797351 4.00980131 -13 2 C-8.46298506 0.54815522 -4.81938524 -0.23509196 0 0 Z " fill="#F2638C" transform="translate(74,60)"/>
<path d="M0 0 C1.65 0.33 3.3 0.66 5 1 C4.3203125 2.953125 4.3203125 2.953125 3 5 C0.6171875 5.609375 0.6171875 5.609375 -2.125 5.75 C-3.03507812 5.80671875 -3.94515625 5.8634375 -4.8828125 5.921875 C-5.58148437 5.94765625 -6.28015625 5.9734375 -7 6 C-6.67 5.01 -6.34 4.02 -6 3 C-4.02 3 -2.04 3 0 3 C0 2.01 0 1.02 0 0 Z " fill="#FDE7F0" transform="translate(30,34)"/>
<path d="M0 0 C0.98484375 0.01804688 1.9696875 0.03609375 2.984375 0.0546875 C4.10585938 0.08949219 4.10585938 0.08949219 5.25 0.125 C5.58 1.445 5.91 2.765 6.25 4.125 C5.59 3.795 4.93 3.465 4.25 3.125 C1.87876754 2.89470044 -0.49741943 2.71380058 -2.875 2.5625 C-4.15632813 2.47871094 -5.43765625 2.39492187 -6.7578125 2.30859375 C-8.23894531 2.21771484 -8.23894531 2.21771484 -9.75 2.125 C-6.40060119 0.09941119 -3.88037449 -0.09238987 0 0 Z " fill="#FD72A3" transform="translate(51.75,61.875)"/>
<path d="M0 0 C1.9375 0.6875 1.9375 0.6875 4 2 C4.33 3.65 4.66 5.3 5 7 C1.37 6.34 -2.26 5.68 -6 5 C-2 2 -2 2 0 2 C0 1.34 0 0.68 0 0 Z " fill="#FCD4D3" transform="translate(73,51)"/>
<path d="M0 0 C1.125 3.75 1.125 3.75 0 6 C-0.99 6 -1.98 6 -3 6 C-3 6.99 -3 7.98 -3 9 C-1.02 9 0.96 9 3 9 C3 9.33 3 9.66 3 10 C0.36 10 -2.28 10 -5 10 C-5.3125 7.8125 -5.3125 7.8125 -5 5 C-2.5 2.1875 -2.5 2.1875 0 0 Z " fill="#F46CF9" transform="translate(48,25)"/>
<path d="M0 0 C0.33 1.32 0.66 2.64 1 4 C0 5 0 5 -3.5625 5.0625 C-4.696875 5.041875 -5.83125 5.02125 -7 5 C-7.33 4.01 -7.66 3.02 -8 2 C-5.36 1.34 -2.72 0.68 0 0 Z " fill="#EF8718" transform="translate(38,15)"/>
<path d="M0 0 C1.65 0 3.3 0 5 0 C5.33 1.65 5.66 3.3 6 5 C4.35 5.33 2.7 5.66 1 6 C0.67 4.02 0.34 2.04 0 0 Z " fill="#FC73A1" transform="translate(33,64)"/>
<path d="M0 0 C1.0326802 2.78823655 1.04509293 3.8677274 0.0625 6.75 C-0.288125 7.4925 -0.63875 8.235 -1 9 C-0.01 9.66 0.98 10.32 2 11 C-0.31 11 -2.62 11 -5 11 C-4.54658132 9.72740489 -4.08704773 8.45698757 -3.625 7.1875 C-3.36976562 6.47980469 -3.11453125 5.77210937 -2.8515625 5.04296875 C-2 3 -2 3 0 0 Z " fill="#F359FB" transform="translate(36,24)"/>
<path d="M0 0 C0.33 0.99 0.66 1.98 1 3 C-3.33420699 5.03165952 -7.28596212 5.52060632 -12 6 C-11.34 5.67 -10.68 5.34 -10 5 C-10 4.34 -10 3.68 -10 3 C-6.97265625 2.26757812 -6.97265625 2.26757812 -3.9453125 1.53515625 C-1.9414343 1.05153008 -1.9414343 1.05153008 0 0 Z " fill="#9B9CAE" transform="translate(86,80)"/>
<path d="M0 0 C1.32 0 2.64 0 4 0 C4 2.31 4 4.62 4 7 C3.34 6.67 2.68 6.34 2 6 C1.34 7.32 0.68 8.64 0 10 C0 6.7 0 3.4 0 0 Z " fill="#F79B48" transform="translate(16,65)"/>
<path d="M0 0 C2.64 0 5.28 0 8 0 C8 0.66 8 1.32 8 2 C4.78548731 3.60725635 1.56387464 3.05748185 -2 3 C-1.34 2.67 -0.68 2.34 0 2 C0 1.34 0 0.68 0 0 Z " fill="#D4D8E8" transform="translate(78,79)"/>
<path d="M0 0 C1.65 0.33 3.3 0.66 5 1 C4.67 1.66 4.34 2.32 4 3 C0.98509443 4.00496852 -1.04181692 4.10335303 -4.1875 4.0625 C-5.53908203 4.04896484 -5.53908203 4.04896484 -6.91796875 4.03515625 C-7.60503906 4.02355469 -8.29210937 4.01195312 -9 4 C-9 3.67 -9 3.34 -9 3 C-5.92382812 2.70703125 -5.92382812 2.70703125 -2.84765625 2.4140625 C-2.23792969 2.27742188 -1.62820312 2.14078125 -1 2 C-0.67 1.34 -0.34 0.68 0 0 Z " fill="#FECDE2" transform="translate(28,55)"/>
<path d="M0 0 C1.98 0 3.96 0 6 0 C3.375 4.875 3.375 4.875 0 6 C0 4.02 0 2.04 0 0 Z " fill="#FCA9FC" transform="translate(43,20)"/>
<path d="M0 0 C0.66 0.33 1.32 0.66 2 1 C2 1.66 2 2.32 2 3 C-3.28 3 -8.56 3 -14 3 C-14 2.67 -14 2.34 -14 2 C-13.15695313 1.93941406 -12.31390625 1.87882812 -11.4453125 1.81640625 C-10.34960938 1.73261719 -9.25390625 1.64882812 -8.125 1.5625 C-7.03445312 1.48128906 -5.94390625 1.40007812 -4.8203125 1.31640625 C-2.05271029 1.16998297 -2.05271029 1.16998297 0 0 Z " fill="#984421" transform="translate(76,78)"/>
<path d="M0 0 C0.99 0.33 1.98 0.66 3 1 C2.67 3.97 2.34 6.94 2 10 C1.34 10 0.68 10 0 10 C0 6.7 0 3.4 0 0 Z " fill="#FAAF5C" transform="translate(23,44)"/>
<path d="M0 0 C1.65 0 3.3 0 5 0 C5 0.99 5 1.98 5 3 C2.69 3.33 0.38 3.66 -2 4 C-1.34 2.68 -0.68 1.36 0 0 Z " fill="#B4B6C4" transform="translate(67,83)"/>
<path d="M0 0 C1.125 3.75 1.125 3.75 0 6 C-2.31 6 -4.62 6 -7 6 C-6.38125 5.9175 -5.7625 5.835 -5.125 5.75 C-2.82618538 5.19392091 -2.82618538 5.19392091 -1.8125 3 C-1.544375 2.34 -1.27625 1.68 -1 1 C-0.67 0.67 -0.34 0.34 0 0 Z " fill="#E0741D" transform="translate(63,14)"/>
<path d="M0 0 C2.7839183 1.39195915 2.97898997 3.15575779 4 6 C3.01 5.67 2.02 5.34 1 5 C-1.19038423 6.37168238 -1.19038423 6.37168238 -3 8 C-1.125 1.125 -1.125 1.125 0 0 Z " fill="#FBE28B" transform="translate(58,6)"/>
<path d="M0 0 C0.5625 1.9375 0.5625 1.9375 1 4 C0 5 0 5 -3.0625 5.0625 C-4.5165625 5.0315625 -4.5165625 5.0315625 -6 5 C-4.06745228 2.9754262 -2.36841312 1.57894208 0 0 Z " fill="#DD536C" transform="translate(79,59)"/>
<path d="M0 0 C-0.99 1.485 -0.99 1.485 -2 3 C-4.625 3.1875 -4.625 3.1875 -7 3 C-7 2.01 -7 1.02 -7 0 C-3.98968256 -0.93423645 -3.13349732 -1.04449911 0 0 Z " fill="#FDB214" transform="translate(62,16)"/>
<path d="M0 0 C0.66 0 1.32 0 2 0 C2 2.31 2 4.62 2 7 C1.34 7 0.68 7 0 7 C0 4.69 0 2.38 0 0 Z " fill="#F49F2F" transform="translate(52,12)"/>
<path d="M0 0 C0.33 0.66 0.66 1.32 1 2 C0.01 3.485 0.01 3.485 -1 5 C-0.67 3.35 -0.34 1.7 0 0 Z " fill="#FFD0E6" transform="translate(21,38)"/>
<path d="M0 0 C0.33 0 0.66 0 1 0 C1 1.65 1 3.3 1 5 C0.67 5 0.34 5 0 5 C0 3.35 0 1.7 0 0 Z " fill="#FFA1C3" transform="translate(12,59)"/>
<path d="M0 0 C0.33 0 0.66 0 1 0 C1 1.65 1 3.3 1 5 C0.67 5 0.34 5 0 5 C0 3.35 0 1.7 0 0 Z " fill="#CCB233" transform="translate(28,14)"/>
<path d="M0 0 C1 4 1 4 1 4 Z " fill="#DFDF00" transform="translate(65,14)"/>
<path d="" fill="#D4D4FF" transform="translate(0,0)"/>
<path d="" fill="#D4D4D4" transform="translate(0,0)"/>
<path d="" fill="#7F7F7F" transform="translate(0,0)"/>
<path d="" fill="#BFBFBF" transform="translate(0,0)"/>
<path d="" fill="#DFBFDF" transform="translate(0,0)"/>
<path d="" fill="#FFFFFF" transform="translate(0,0)"/>
<path d="" fill="#FFFFFF" transform="translate(0,0)"/>
<path d="" fill="#FFD4FF" transform="translate(0,0)"/>
<path d="" fill="#FF3F7F" transform="translate(0,0)"/>
<path d="" fill="#FFB474" transform="translate(0,0)"/>
<path d="" fill="#FFDF9F" transform="translate(0,0)"/>
<path d="" fill="#FFFFD4" transform="translate(0,0)"/>
<path d="" fill="#FFFFBF" transform="translate(0,0)"/>
<path d="" fill="#FFFF00" transform="translate(0,0)"/>
<path d="" fill="#000000" transform="translate(0,0)"/>
<path d="" fill="#FFFFFF" transform="translate(0,0)"/>
<path d="" fill="#FFFFFF" transform="translate(0,0)"/>
<path d="" fill="#FF7FFF" transform="translate(0,0)"/>
<path d="" fill="#FFFFFF" transform="translate(0,0)"/>
<path d="" fill="#FFAAFF" transform="translate(0,0)"/>
<path d="" fill="#FFFFFF" transform="translate(0,0)"/>
<path d="" fill="#FFFFFF" transform="translate(0,0)"/>
<path d="" fill="#FFFFFF" transform="translate(0,0)"/>
<path d="" fill="#FF7F7F" transform="translate(0,0)"/>
<path d="" fill="#7F7F7F" transform="translate(0,0)"/>
<path d="" fill="#FF0000" transform="translate(0,0)"/>
<path d="" fill="#FFFFBF" transform="translate(0,0)"/>
<path d="" fill="#FFFF7F" transform="translate(0,0)"/>
<path d="" fill="#FFFF55" transform="translate(0,0)"/>
<path d="" fill="#FFFF7F" transform="translate(0,0)"/>
<path d="" fill="#FFFFAA" transform="translate(0,0)"/>
<path d="" fill="#FFFF7F" transform="translate(0,0)"/>
<path d="" fill="#FFFFFF" transform="translate(0,0)"/>
<path d="" fill="#FFFFAA" transform="translate(0,0)"/>
<path d="" fill="#FFFF00" transform="translate(0,0)"/>
<path d="" fill="#FFFFFF" transform="translate(0,0)"/>
<path d="" fill="#AAAA00" transform="translate(0,0)"/>
<path d="" fill="#FFFFFF" transform="translate(0,0)"/>
</svg>
